<?xml version="1.0" standalone="no"?>
<!DOCTYPE svg PUBLIC "-//W3C//DTD SVG 20010904//EN"
 "http://www.w3.org/TR/2001/REC-SVG-20010904/DTD/svg10.dtd">
<svg version="1.0" xmlns="http://www.w3.org/2000/svg"
 width="1200.000000pt" height="799.000000pt" viewBox="0 0 1200.000000 799.000000"
 preserveAspectRatio="xMidYMid meet">

<g transform="translate(0.000000,799.000000) scale(0.100000,-0.100000)"
fill="#000000" stroke="none">
<path d="M6720 5575 c-389 -47 -674 -178 -915 -420 -165 -165 -282 -360 -349
-580 -32 -106 -43 -149 -66 -279 -8 -49 -18 -69 -58 -114 -95 -109 -185 -139
-457 -155 -111 -6 -209 -8 -218 -4 -16 6 -17 42 -17 463 l0 457 218 -6 c174
-5 229 -10 277 -25 80 -25 149 -59 171 -83 9 -10 22 -19 29 -19 6 0 32 42 59
93 65 127 164 264 269 371 48 49 87 93 87 97 0 10 -78 45 -167 74 -180 58
-176 58 -975 62 l-738 4 0 -1530 0 -1531 379 0 c336 0 380 2 385 16 3 9 6 233
6 499 l0 482 298 6 c286 5 327 9 487 45 296 67 598 315 711 582 28 67 55 164
86 315 15 68 79 205 133 281 58 81 159 171 249 223 144 82 267 111 476 111
155 0 224 -11 355 -54 163 -54 265 -112 462 -259 114 -84 138 -98 165 -95 l33
3 0 355 0 355 -60 31 c-120 61 -392 161 -525 192 -215 51 -548 66 -790 37z"/>
<path d="M6783 4143 c-10 -3 -13 -70 -13 -283 l0 -278 23 -5 c12 -3 143 -6
291 -6 210 0 271 -3 277 -13 11 -16 12 -559 1 -574 -13 -20 -207 -25 -337 -9
-199 24 -259 41 -396 111 -184 95 -312 240 -387 439 -21 55 -52 179 -52 207 0
15 -4 29 -9 32 -4 3 -55 -41 -112 -97 -156 -153 -311 -251 -504 -318 -93 -32
-92 -26 -34 -149 134 -282 348 -497 634 -635 91 -44 220 -92 285 -105 253 -53
364 -64 565 -57 200 8 336 24 507 61 157 34 457 121 551 161 l37 15 -2 753 -3
752 -655 2 c-360 1 -661 -1 -667 -4z"/>
</g>
</svg>
